PathFileType	4	(X/Y/Z)	C:/Users/opensim2020/Desktop/walking_exp_matlab/subject06_walking20_straight_02.trc																																																																																																																															
DataRate	CameraRate	NumFrames	NumMarkers	Units	OrigDataRate	OrigDataStartFrame	OrigNumFrames																																																																																																																											
100	100	7	43	mm	100	1294	105																																																																																																																											
Frame#	Time	LFHD			RFHD			LBHD			RBHD			C7			T10			CLAV			STRN			RBAK			LSHO			LUPA			LELB			LFRM			LWRA			LWRB			LFIN			RSHO			RUPA			RELB			RFRM			RWRA			RWRB			RFIN			LASI			RASI			LPSI			RPSI			LTHI			LKNE			LTIB			LANK			LHEE			LTOE			RTHI			RKNE			RTIB			RANK			RHEE			RTOE			*39			*40			*41			*42		
		X1	Y1	Z1	X2	Y2	Z2	X3	Y3	Z3	X4	Y4	Z4	X5	Y5	Z5	X6	Y6	Z6	X7	Y7	Z7	X8	Y8	Z8	X9	Y9	Z9	X10	Y10	Z10	X11	Y11	Z11	X12	Y12	Z12	X13	Y13	Z13	X14	Y14	Z14	X15	Y15	Z15	X16	Y16	Z16	X17	Y17	Z17	X18	Y18	Z18	X19	Y19	Z19	X20	Y20	Z20	X21	Y21	Z21	X22	Y22	Z22	X23	Y23	Z23	X24	Y24	Z24	X25	Y25	Z25	X26	Y26	Z26	X27	Y27	Z27	X28	Y28	Z28	X29	Y29	Z29	X30	Y30	Z30	X31	Y31	Z31	X32	Y32	Z32	X33	Y33	Z33	X34	Y34	Z34	X35	Y35	Z35	X36	Y36	Z36	X37	Y37	Z37	X38	Y38	Z38	X39	Y39	Z39	X40	Y40	Z40	X41	Y41	Z41	X42	Y42	Z42	X43	Y43	Z43
																																																																																																																																		
53	0.52	-385.41119	1657.58069	-1514.78503	-395.12961	1641.77734	-1384.29248	-519.31323	1605.76367	-1525.29211	-527.54529	1595.62769	-1397.76978	-524.61371	1442.56335	-1474.57813	-556.27252	1114.28784	-1464.49377	-413.37625	1367.24548	-1466.45691	-371.50516	1191.8219	-1474.9325	-599.62701	1270.93079	-1404.54114	-459.77173	1400.74182	-1631.01428	-435.33304	1204.19421	-1712.72314	-417.10876	1093.58398	-1732.99524	-331.64127	970.76862	-1753.13318	-226.89693	899.23389	-1705.0918	-275.38834	865.58246	-1745.0094	-199.10594	818.26892	-1745.50195	-473.51303	1396.21399	-1308.57288	-555.08704	1211.75305	-1228.02893	-573.85614	1090.66553	-1215.80383	-593.39496	972.01831	-1196.07813	-572.83319	819.58154	-1219.31628	-628.95721	838.2655	-1185.23987	-616.92688	754.36823	-1179.69397	-385.97467	951.23523	-1575.60779	-383.4006	958.35791	-1356.39771	-541.93011	984.33838	-1542.53137	-533.33521	980.92712	-1374.61829	-482.13998	642.59906	-1629.53564	-509.01431	480.09756	-1607.41626	-602.87469	239.17784	-1604.09351	-654.93896	74.40928	-1563.22046	-702.28668	65.40108	-1522.34851	-516.21393	39.14416	-1552.24255	-351.98575	637.29401	-1293.19458	-296.38721	525.27356	-1322.45129	-303.49509	263.57327	-1322.01782	-290.48306	78.13284	-1361.59363	-322.6503	50.4818	-1410.98254	-139.30223	52.06751	-1350.75305	-489.00668	1695.57776	-1460.76343	NaN	NaN	NaN	NaN	NaN	NaN	NaN	NaN	NaN
54	0.53	-370.48111	1655.40369	-1513.86072	-380.4465	1639.21716	-1383.31934	-504.43124	1603.83752	-1524.67407	-512.88629	1593.3562	-1397.10132	-510.21646	1440.39355	-1474.1073	-542.27576	1112.08777	-1464.00891	-398.87003	1365.052	-1466.15112	-357.44315	1189.55054	-1475.02173	-585.37988	1268.72998	-1404.25232	-445.70572	1398.94092	-1630.64709	-419.74814	1202.83569	-1712.53296	-399.69775	1092.58337	-1732.98547	-310.20068	972.7511	-1752.59692	-203.00732	905.45959	-1704.03918	-250.07784	869.85626	-1743.88855	-171.88315	825.92535	-1744.52356	-459.112	1393.95007	-1308.25012	-541.78107	1210.3678	-1228.03589	-561.92285	1089.48926	-1215.3114	-582.91815	970.9024	-1195.58582	-564.24847	818.10205	-1218.20581	-620.26263	837.73315	-1184.36731	-609.48145	753.68866	-1178.72998	-373.01141	948.99768	-1575.36621	-368.74213	956.10028	-1356.3429	-528.75256	982.07294	-1541.51123	-518.79742	978.82819	-1373.53271	-471.62485	640.75793	-1628.89075	-500.97592	478.55539	-1607.00061	-598.99445	239.23036	-1603.61304	-654.32623	75.48994	-1563.07483	-701.88788	67.05109	-1522.23743	-516.04919	39.18349	-1552.11023	-339.37332	634.37128	-1292.34119	-282.83594	522.76892	-1321.60303	-277.02512	261.90649	-1319.64856	-253.18144	77.33409	-1358.3822	-284.63672	48.88367	-1407.55835	-100.89336	55.40435	-1349.14136	-474.01819	1693.40881	-1459.86633	NaN	NaN	NaN	NaN	NaN	NaN	NaN	NaN	NaN
55	0.54	-355.61401	1653.14819	-1512.77698	-365.71625	1636.65576	-1382.26233	-489.56183	1601.88037	-1523.97876	-498.14288	1591.07581	-1396.38416	-495.78162	1438.26953	-1473.52795	-528.14026	1109.84448	-1463.52917	-384.46692	1362.76636	-1465.73511	-343.19449	1187.26868	-1474.99573	-571.0788	1266.40955	-1403.995	-431.87338	1397.05457	-1630.09302	-404.09537	1201.5083	-1712.23694	-382.4668	1091.58826	-1732.82251	-289.18277	974.75635	-1751.87012	-179.76831	911.78082	-1702.79346	-225.36902	874.32495	-1742.63513	-145.49245	833.61597	-1743.2439	-444.62671	1391.6272	-1307.78674	-528.78772	1208.7533	-1227.73083	-549.90326	1088.10388	-1214.76587	-572.13324	969.89392	-1194.77991	-555.15723	816.76074	-1217.0675	-610.92468	837.11176	-1183.28833	-601.21893	752.76556	-1177.65125	-359.79858	946.67291	-1575.38245	-353.94357	953.78033	-1356.24695	-515.49207	979.70251	-1540.40747	-504.1431	976.71185	-1372.38123	-460.92877	639.0257	-1628.34753	-492.82211	477.16479	-1606.60681	-595.18292	239.53073	-1603.12842	-653.73383	76.93411	-1562.87439	-701.3042	69.11532	-1521.92615	-515.98853	39.09803	-1552.03076	-326.63358	631.29077	-1291.30334	-269.12115	520.34961	-1320.57092	-251.15446	260.76468	-1317.39099	-217.5179	77.6126	-1355.42322	-248.31963	48.15982	-1404.26074	-64.1708	60.11095	-1347.69263	-459.04999	1691.20361	-1458.85803	NaN	NaN	NaN	NaN	NaN	NaN	NaN	NaN	NaN
56	0.55	-340.5752	1650.98645	-1511.71045	-350.91629	1634.12195	-1381.14221	-474.68484	1599.89526	-1523.19348	-483.40833	1588.75842	-1395.5675	-481.26312	1436.10388	-1472.79663	-513.93408	1107.58044	-1462.99316	-369.96051	1360.52405	-1465.21545	-328.97421	1184.98108	-1474.86755	-556.67566	1264.04773	-1403.51245	-417.93832	1395.12317	-1629.45325	-388.45859	1200.07751	-1711.77612	-365.57318	1090.45679	-1732.35339	-268.55362	976.70941	-1751.16565	-157.17097	918.04468	-1701.47217	-201.16794	878.65393	-1741.01855	-119.98535	841.28094	-1741.75317	-429.99191	1389.23022	-1307.20618	-515.64465	1207.00232	-1227.34277	-537.59662	1086.59546	-1214.16528	-561.04541	968.62793	-1193.86462	-545.39038	815.27057	-1215.70862	-601.10126	836.27704	-1182.21985	-592.47058	751.71301	-1176.46643	-346.13474	944.50269	-1575.49133	-338.91165	951.49915	-1356.27307	-501.97607	977.25903	-1539.20862	-489.29428	974.4715	-1371.17578	-450.12924	637.51239	-1627.8468	-484.40091	475.99258	-1606.28162	-591.32422	240.27492	-1602.64954	-653.10767	78.79087	-1562.56396	-700.67395	71.71146	-1521.53076	-515.88635	39.02984	-1551.95789	-313.61682	628.23914	-1290.0415	-255.32986	517.86444	-1319.17444	-225.86015	260.16971	-1315.40076	-183.65453	78.60045	-1353.1272	-213.58522	47.45629	-1401.92725	-29.56223	66.34267	-1346.44727	-444.12793	1688.99243	-1457.77612	NaN	NaN	NaN	NaN	NaN	NaN	NaN	NaN	NaN
57	0.56	-325.6456	1648.83411	-1510.52783	-336.08484	1631.625	-1379.95056	-459.78915	1597.9364	-1522.34436	-468.62607	1586.47119	-1394.62622	-466.65451	1433.99463	-1472.026	-499.58817	1105.36353	-1462.42407	-355.52658	1358.2395	-1464.58923	-314.61713	1182.69397	-1474.56409	-542.19873	1261.73425	-1403.07593	-403.9874	1393.23059	-1628.77637	-372.85114	1198.58984	-1711.25391	-348.90305	1089.2699	-1731.72034	-248.6006	978.67572	-1750.15881	-135.33566	924.25183	-1699.98621	-177.84409	883.36633	-1739.72559	-95.29533	848.83582	-1740.06458	-415.31406	1386.84717	-1306.49487	-502.18326	1205.2804	-1226.86084	-525.02844	1084.98865	-1213.45874	-549.49432	967.30066	-1192.92883	-534.9303	813.69482	-1214.15979	-590.677	835.26715	-1181.08582	-582.59857	750.70959	-1175.32043	-332.36246	942.39001	-1575.56274	-323.60315	949.34167	-1356.26294	-488.23822	974.86218	-1538.09912	-474.1947	972.21942	-1369.96484	-439.24643	636.31055	-1627.44397	-475.66046	475.0639	-1606.02271	-587.25275	241.26273	-1602.20007	-652.24609	80.97637	-1562.19275	-699.83124	74.85033	-1521.06384	-515.89667	39.01385	-1552.11182	-300.13535	625.57587	-1288.2467	-241.25357	515.34937	-1317.33167	-201.82906	259.70337	-1313.28162	-152.12088	79.95319	-1351.17847	-180.80405	47.38908	-1399.78162	2.7309	73.99247	-1345.17505	-429.1976	1686.80664	-1456.64465	NaN	NaN	NaN	NaN	NaN	NaN	NaN	NaN	NaN
58	0.57	-310.7442	1646.72021	-1509.25366	-321.22153	1629.26086	-1378.7157	-444.89102	1596.04272	-1521.49048	-453.76184	1584.19495	-1393.62585	-452.03006	1431.93762	-1471.10034	-485.11774	1103.19812	-1461.80042	-340.48923	1356.25452	-1463.86707	-300.14874	1180.51501	-1474.12378	-527.73883	1259.5	-1402.53516	-389.82977	1391.44495	-1628.09009	-357.40546	1197.10632	-1710.57544	-332.47598	1088.07642	-1730.99304	-229.33478	980.61395	-1748.77734	-114.25595	930.29071	-1698.45923	-155.21631	887.92773	-1738.11072	-71.51112	856.26544	-1738.1731	-400.54459	1384.52539	-1305.65442	-488.98056	1203.30481	-1226.16833	-512.15619	1083.3877	-1212.6145	-537.51593	965.88983	-1191.88	-524.12439	812.18945	-1212.68713	-579.68811	834.21893	-1179.88867	-572.69855	749.52405	-1173.77673	-319.16055	939.99323	-1575.5769	-308.27222	947.28674	-1356.09741	-474.19131	972.50464	-1536.92017	-459.24127	970.27051	-1368.79993	-428.01215	635.32288	-1627.09363	-466.45325	474.20612	-1605.69519	-582.93115	242.57104	-1601.83557	-651.14929	83.5704	-1561.88464	-698.72107	78.39249	-1520.64917	-515.66516	39.01373	-1551.95728	-285.62708	623.51563	-1286.14221	-226.70778	512.8974	-1315.15198	-179.37375	259.45984	-1311.37683	-122.78117	81.34	-1349.83655	-150.33687	47.67863	-1397.82446	32.51323	81.7257	-1344.43359	-414.30328	1684.68909	-1455.36084	NaN	NaN	NaN	NaN	NaN	NaN	NaN	NaN	NaN
59	0.58	-295.74637	1644.80481	-1507.89868	-306.27521	1627.08301	-1377.38416	-429.9436	1594.20642	-1520.43213	-438.83502	1582.06592	-1392.52356	-437.3349	1430.01245	-1470.0791	-470.48166	1101.10913	-1461.12695	-325.93155	1354.1261	-1462.97485	-285.55948	1178.48303	-1473.49866	-513.07776	1257.40808	-1401.82593	-375.37411	1389.73975	-1627.3241	-342.07236	1195.5625	-1709.77588	-316.2666	1086.86401	-1730.0813	-210.4321	982.43829	-1747.52588	-93.93163	936.12482	-1696.76611	-133.34669	892.32965	-1736.33362	-48.63391	863.41742	-1736.16809	-385.71042	1382.29712	-1304.7085	-474.77429	1201.66687	-1225.64124	-498.99573	1081.73718	-1211.70142	-525.14258	964.48206	-1190.78796	-512.42279	810.82623	-1210.75256	-568.1214	833.25446	-1178.58447	-561.81219	748.37939	-1172.29736	-304.21799	938.31018	-1575.44177	-292.73453	945.45917	-1355.83606	-459.75726	970.24121	-1535.75513	-444.00665	968.34766	-1367.63477	-416.28912	634.31702	-1626.65735	-456.55136	473.38141	-1605.24902	-578.01886	244.05891	-1601.48279	-649.78699	86.56114	-1561.77771	-697.43756	82.45382	-1520.52893	-515.39166	38.95234	-1551.8324	-270.15707	622.07275	-1283.91895	-211.99284	510.67728	-1313.22876	-158.38864	259.10699	-1309.62549	-96.2004	82.86324	-1348.16357	-122.51069	47.91618	-1396.03345	59.36282	88.69655	-1343.79846	-399.33627	1682.66284	-1454.0863	NaN	NaN	NaN	NaN	NaN	NaN	NaN	NaN	NaN
